<svg width="216" height="46" viewBox="0 0 216 46" fill="none" xmlns="http://www.w3.org/2000/svg">
<path d="M0 5V40L15.3 31C16.4029 30.35 17.7448 30 19.125 30H44.625C46.3158 30 47.9373 29.4732 49.1328 28.5355C50.3283 27.5979 51 26.3261 51 25V5C51 3.67392 50.3283 2.40215 49.1328 1.46447C47.9373 0.526784 46.3158 0 44.625 0H6.375C4.68424 0 3.06274 0.526784 1.86719 1.46447C0.67165 2.40215 0 3.67392 0 5V5ZM6.375 30V5H44.625V25H17.0021C15.6222 24.9971 14.2789 25.3483 13.1771 26L6.375 30Z" fill="#4B84F1"/>
<path d="M57 46V14.8C57 13.527 56.41 12.3061 55.3598 11.4059C54.3096 10.5057 52.8852 10 51.4 10V36.4L45.4248 32.56C44.457 31.9343 43.277 31.5972 42.0648 31.6H15C15 32.2303 15.1448 32.8545 15.4263 33.4369C15.7077 34.0192 16.1202 34.5484 16.6402 34.9941C17.1602 35.4398 17.7776 35.7934 18.457 36.0346C19.1364 36.2758 19.8646 36.4 20.6 36.4H40.2C41.4124 36.4 42.5912 36.736 43.56 37.36L57 46Z" fill="#9DB9EF"/>
<path d="M87.42 9.92V32H83.07V23.03H73.2V32H68.85V9.92H73.2V18.83H83.07V9.92H87.42ZM96.4378 32.36C95.2178 32.36 94.1078 32.12 93.1078 31.64C92.1278 31.14 91.3478 30.38 90.7678 29.36C90.1878 28.34 89.8978 27.04 89.8978 25.46C89.8978 23.98 90.1978 22.7 90.7978 21.62C91.3978 20.54 92.1878 19.71 93.1678 19.13C94.1478 18.53 95.1878 18.23 96.2878 18.23C97.5878 18.23 98.5678 18.45 99.2278 18.89C99.9078 19.31 100.468 19.78 100.908 20.3L100.728 20.81L101.118 18.89H105.018V32H100.818V29.15L101.148 30.05C101.108 30.05 100.988 30.17 100.788 30.41C100.588 30.63 100.288 30.9 99.8878 31.22C99.5078 31.52 99.0278 31.78 98.4478 32C97.8878 32.24 97.2178 32.36 96.4378 32.36ZM97.6378 28.94C98.1378 28.94 98.5878 28.87 98.9878 28.73C99.3878 28.57 99.7378 28.35 100.038 28.07C100.338 27.77 100.598 27.4 100.818 26.96V23.75C100.658 23.31 100.418 22.94 100.098 22.64C99.7778 22.32 99.3978 22.08 98.9578 21.92C98.5178 21.74 98.0278 21.65 97.4878 21.65C96.8878 21.65 96.3278 21.81 95.8078 22.13C95.3078 22.43 94.9078 22.85 94.6078 23.39C94.3078 23.93 94.1578 24.55 94.1578 25.25C94.1578 25.95 94.3178 26.58 94.6378 27.14C94.9578 27.7 95.3778 28.14 95.8978 28.46C96.4378 28.78 97.0178 28.94 97.6378 28.94ZM107.846 8.33H112.046V32H107.846V8.33ZM113.851 25.28C113.851 23.94 114.161 22.74 114.781 21.68C115.421 20.62 116.311 19.79 117.451 19.19C118.591 18.57 119.901 18.26 121.381 18.26C122.881 18.26 124.181 18.57 125.281 19.19C126.381 19.79 127.221 20.62 127.801 21.68C128.401 22.74 128.701 23.94 128.701 25.28C128.701 26.62 128.401 27.83 127.801 28.91C127.221 29.97 126.381 30.81 125.281 31.43C124.181 32.05 122.861 32.36 121.321 32.36C119.881 32.36 118.591 32.08 117.451 31.52C116.331 30.96 115.451 30.15 114.811 29.09C114.171 28.03 113.851 26.76 113.851 25.28ZM118.081 25.31C118.081 25.99 118.221 26.61 118.501 27.17C118.781 27.71 119.161 28.14 119.641 28.46C120.121 28.78 120.661 28.94 121.261 28.94C121.921 28.94 122.491 28.78 122.971 28.46C123.451 28.14 123.821 27.71 124.081 27.17C124.341 26.61 124.471 25.99 124.471 25.31C124.471 24.61 124.341 23.99 124.081 23.45C123.821 22.91 123.451 22.48 122.971 22.16C122.491 21.84 121.921 21.68 121.261 21.68C120.661 21.68 120.121 21.84 119.641 22.16C119.161 22.48 118.781 22.91 118.501 23.45C118.221 23.99 118.081 24.61 118.081 25.31ZM137.05 10.31C139.23 10.31 140.94 10.76 142.18 11.66C143.44 12.54 144.07 13.92 144.07 15.8C144.07 16.94 143.81 17.93 143.29 18.77C142.77 19.61 142.04 20.27 141.1 20.75C140.18 21.23 139.09 21.5 137.83 21.56L137.41 20.06C138.87 20.1 140.18 20.36 141.34 20.84C142.5 21.32 143.42 21.99 144.1 22.85C144.78 23.71 145.12 24.73 145.12 25.91C145.12 26.99 144.92 27.92 144.52 28.7C144.12 29.46 143.58 30.09 142.9 30.59C142.22 31.07 141.45 31.43 140.59 31.67C139.73 31.89 138.84 32 137.92 32H131.47V10.31H137.05ZM137.65 19.82C138.85 19.82 139.72 19.49 140.26 18.83C140.8 18.15 141.07 17.33 141.07 16.37C141.07 15.23 140.72 14.4 140.02 13.88C139.32 13.36 138.38 13.1 137.2 13.1H134.38V19.82H137.65ZM137.77 29.3C138.57 29.3 139.3 29.18 139.96 28.94C140.64 28.7 141.17 28.33 141.55 27.83C141.95 27.33 142.15 26.7 142.15 25.94C142.15 25.1 141.92 24.44 141.46 23.96C141.02 23.48 140.45 23.14 139.75 22.94C139.05 22.72 138.33 22.61 137.59 22.61H134.38V29.3H137.77ZM153.585 32.3C152.165 32.3 150.945 32.02 149.925 31.46C148.905 30.88 148.115 30.1 147.555 29.12C147.015 28.12 146.745 26.98 146.745 25.7C146.745 24.48 147.055 23.37 147.675 22.37C148.295 21.37 149.125 20.57 150.165 19.97C151.205 19.37 152.365 19.07 153.645 19.07C155.285 19.07 156.645 19.55 157.725 20.51C158.805 21.47 159.535 22.79 159.915 24.47L149.685 28.07L149.025 26.42L157.425 23.36L156.825 23.75C156.585 23.09 156.185 22.52 155.625 22.04C155.065 21.54 154.335 21.29 153.435 21.29C152.675 21.29 151.995 21.48 151.395 21.86C150.795 22.22 150.325 22.72 149.985 23.36C149.645 24 149.475 24.73 149.475 25.55C149.475 26.41 149.655 27.17 150.015 27.83C150.375 28.47 150.865 28.98 151.485 29.36C152.125 29.72 152.845 29.9 153.645 29.9C154.185 29.9 154.705 29.8 155.205 29.6C155.725 29.4 156.205 29.14 156.645 28.82L157.935 30.89C157.315 31.31 156.615 31.65 155.835 31.91C155.075 32.17 154.325 32.3 153.585 32.3ZM161.91 8.78H164.7V32H161.91V8.78ZM173.188 32.3C172.028 32.3 170.968 32.05 170.008 31.55C169.068 31.05 168.318 30.32 167.758 29.36C167.218 28.38 166.948 27.19 166.948 25.79C166.948 24.41 167.238 23.22 167.818 22.22C168.398 21.2 169.168 20.42 170.128 19.88C171.108 19.34 172.178 19.07 173.338 19.07C174.498 19.07 175.478 19.34 176.278 19.88C177.078 20.4 177.688 21.02 178.108 21.74L177.928 22.22L178.198 19.58H180.778V32H177.988V28.76L178.288 29.48C178.208 29.68 178.028 29.94 177.748 30.26C177.488 30.56 177.128 30.87 176.668 31.19C176.228 31.51 175.718 31.78 175.138 32C174.558 32.2 173.908 32.3 173.188 32.3ZM173.938 29.99C174.638 29.99 175.268 29.86 175.828 29.6C176.388 29.34 176.848 28.98 177.208 28.52C177.588 28.04 177.848 27.47 177.988 26.81V24.38C177.828 23.78 177.548 23.26 177.148 22.82C176.748 22.36 176.268 22.01 175.708 21.77C175.148 21.51 174.528 21.38 173.848 21.38C173.108 21.38 172.428 21.56 171.808 21.92C171.188 22.28 170.688 22.78 170.308 23.42C169.948 24.06 169.768 24.81 169.768 25.67C169.768 26.47 169.958 27.2 170.338 27.86C170.718 28.52 171.228 29.04 171.868 29.42C172.508 29.8 173.198 29.99 173.938 29.99ZM184.256 37.97L182.606 36.26C183.166 35.78 183.606 35.18 183.926 34.46C184.246 33.76 184.406 32.93 184.406 31.97V19.58H187.226V32.09C187.226 33.49 186.986 34.67 186.506 35.63C186.046 36.61 185.296 37.39 184.256 37.97ZM184.166 15.08C184.166 14.64 184.336 14.27 184.676 13.97C185.036 13.67 185.426 13.52 185.846 13.52C186.266 13.52 186.636 13.67 186.956 13.97C187.296 14.27 187.466 14.64 187.466 15.08C187.466 15.54 187.296 15.92 186.956 16.22C186.636 16.5 186.266 16.64 185.846 16.64C185.426 16.64 185.036 16.49 184.676 16.19C184.336 15.89 184.166 15.52 184.166 15.08ZM195.529 32.3C194.369 32.3 193.309 32.05 192.349 31.55C191.409 31.05 190.659 30.32 190.099 29.36C189.559 28.38 189.289 27.19 189.289 25.79C189.289 24.41 189.579 23.22 190.159 22.22C190.739 21.2 191.509 20.42 192.469 19.88C193.449 19.34 194.519 19.07 195.679 19.07C196.839 19.07 197.819 19.34 198.619 19.88C199.419 20.4 200.029 21.02 200.449 21.74L200.269 22.22L200.539 19.58H203.119V32H200.329V28.76L200.629 29.48C200.549 29.68 200.369 29.94 200.089 30.26C199.829 30.56 199.469 30.87 199.009 31.19C198.569 31.51 198.059 31.78 197.479 32C196.899 32.2 196.249 32.3 195.529 32.3ZM196.279 29.99C196.979 29.99 197.609 29.86 198.169 29.6C198.729 29.34 199.189 28.98 199.549 28.52C199.929 28.04 200.189 27.47 200.329 26.81V24.38C200.169 23.78 199.889 23.26 199.489 22.82C199.089 22.36 198.609 22.01 198.049 21.77C197.489 21.51 196.869 21.38 196.189 21.38C195.449 21.38 194.769 21.56 194.149 21.92C193.529 22.28 193.029 22.78 192.649 23.42C192.289 24.06 192.109 24.81 192.109 25.67C192.109 26.47 192.299 27.2 192.679 27.86C193.059 28.52 193.569 29.04 194.209 29.42C194.849 29.8 195.539 29.99 196.279 29.99ZM208.938 19.58L209.208 23.18L209.058 22.7C209.378 21.94 209.838 21.3 210.438 20.78C211.058 20.24 211.698 19.83 212.358 19.55C213.038 19.25 213.628 19.1 214.128 19.1L213.978 21.86C213.038 21.8 212.208 21.98 211.488 22.4C210.788 22.82 210.228 23.38 209.808 24.08C209.408 24.78 209.208 25.53 209.208 26.33V32H206.448V19.58H208.938Z" fill="#4B84F1"/>
</svg>
