<svg width="57" height="46" viewBox="0 0 57 46" fill="none" xmlns="http://www.w3.org/2000/svg">
<path d="M0 5V40L15.3 31C16.4029 30.35 17.7448 30 19.125 30H44.625C46.3158 30 47.9373 29.4732 49.1328 28.5355C50.3283 27.5979 51 26.3261 51 25V5C51 3.67392 50.3283 2.40215 49.1328 1.46447C47.9373 0.526784 46.3158 0 44.625 0H6.375C4.68424 0 3.06274 0.526784 1.86719 1.46447C0.67165 2.40215 0 3.67392 0 5V5ZM6.375 30V5H44.625V25H17.0021C15.6222 24.9971 14.2789 25.3483 13.1771 26L6.375 30Z" fill="white"/>
<path d="M57 46V14.8C57 13.527 56.41 12.3061 55.3598 11.4059C54.3096 10.5057 52.8852 10 51.4 10V36.4L45.4248 32.56C44.457 31.9343 43.277 31.5972 42.0648 31.6H15C15 32.2303 15.1448 32.8545 15.4263 33.4369C15.7077 34.0192 16.1202 34.5484 16.6402 34.9941C17.1602 35.4398 17.7776 35.7934 18.457 36.0346C19.1364 36.2758 19.8646 36.4 20.6 36.4H40.2C41.4124 36.4 42.5912 36.736 43.56 37.36L57 46Z" fill="#9DB9EF"/>
</svg>
