<svg width="68" height="68" viewBox="0 0 68 68" fill="none" xmlns="http://www.w3.org/2000/svg">
<path d="M34.0003 5.66672C18.3887 5.66672 5.66699 18.3884 5.66699 34C5.66699 49.6117 18.3887 62.3334 34.0003 62.3334C49.612 62.3334 62.3337 49.6117 62.3337 34C62.3337 18.3884 49.612 5.66672 34.0003 5.66672ZM34.0003 17.3117C39.1853 17.3117 43.407 21.5334 43.407 26.7184C43.407 31.9034 39.1853 36.125 34.0003 36.125C28.8153 36.125 24.5937 31.9034 24.5937 26.7184C24.5937 21.5334 28.8153 17.3117 34.0003 17.3117ZM34.0003 58.0834C27.0587 58.0834 20.797 55.1367 16.4053 50.4333C15.442 49.4133 14.5637 48.28 13.7703 47.0617C19.1537 42.9533 26.4353 40.6017 34.0003 40.6017C41.5653 40.6017 48.847 42.9533 54.2303 47.0617C53.437 48.28 52.5587 49.4133 51.5953 50.4333C47.2037 55.1367 40.942 58.0834 34.0003 58.0834Z" fill="#867A7A"/>
</svg>
